<svg xmlns="http://www.w3.org/2000/svg" width="640" height="352" viewBox="0 0 640 352">
  <defs>
    <style>
      .cls-1 {
        fill: #6dcff6;
      }

      .cls-2 {
        fill: none;
        stroke: #ebebeb;
        stroke-width: 3px;
        fill-rule: evenodd;
      }

      .cls-3 {
        fill: #ebebeb;
      }

      .cls-4 {
        fill: #ccc;
      }
    </style>
  </defs>
  <g id="cols-fixed-aside.svg">
    <rect id="aside" class="cls-1" x="1" y="21" width="117" height="331"/>
    <rect id="main" class="cls-1" x="177" y="60" width="401" height="292"/>
    <g id="bar">
      <path id="Screen_bg" data-name="Screen bg" class="cls-2" d="M809,494h630a5,5,0,0,1,5,5V841a5,5,0,0,1-5,5H809a5,5,0,0,1-5-5V499A5,5,0,0,1,809,494Zm0,0h630a5,5,0,0,1,5,5V841a5,5,0,0,1-5,5H809a5,5,0,0,1-5-5V499A5,5,0,0,1,809,494Z" transform="translate(-804 -494)"/>
      <rect id="bar-2" data-name="bar" class="cls-3" y="-1" width="640" height="22" rx="5" ry="5"/>
      <circle id="b" class="cls-4" cx="11.5" cy="11.5" r="4.5"/>
      <circle id="b-2" data-name="b" class="cls-4" cx="23.5" cy="11.5" r="4.5"/>
    </g>
  </g>
</svg>
