<?xml version="1.0" encoding="utf-8"?>
<svg version="1.1" id="Layer_1" xmlns="http://www.w3.org/2000/svg" xmlns:xlink="http://www.w3.org/1999/xlink" x="0px" y="0px"
	 viewBox="0 0 350 380" style="enable-background:new 0 0 1970.6 373.6;" xml:space="preserve">
<style type="text/css">
	.st0{fill:#269075;stroke:#000000;stroke-miterlimit:10;}
	.st1{fill:#FFFFFF;}
</style>

<path class="st1" d="M227.8,373.6c53.9-31.6,92-121,90.7-204.4c-0.3-25.7-4.6-51.2-12.8-75.5c0,0-58.3-21.2-129.6-20.1
	c-11,0.2-21.9,1.1-32.8,2.6l61.8,217.6c19-5.2,36.7-15.5,52.8-20.2c-6.5,17.4-21.9,43.7-41.9,58.4L227.8,373.6z M213,213.2
	c6.6-8.9,22.4-21.8,36.5-18.1s22.4,22.9,24.1,34C255,218.9,234.2,213.4,213,213.2z"/>
<path class="st1" d="M90.3,0C36.6,31.5-1.3,120.5,0,203.5c0.3,25.6,4.6,50.9,12.7,75.2c0,0,58,21.1,129.1,20
	c10.9-0.2,21.8-1.1,32.6-2.6L112.9,79.4C94,84.6,76.3,94.8,60.3,99.6c6.4-17.3,21.8-43.5,41.8-58.2L90.3,0z M105,159.7
	c-6.6,8.9-22.3,21.6-36.4,18s-22.3-22.7-24-33.8C63.2,154,83.9,159.4,105,159.7L105,159.7z"/>

</svg>
