<?xml version="1.0" encoding="utf-8"?>
<svg version="1.1" xmlns="http://www.w3.org/2000/svg" xmlns:xlink="http://www.w3.org/1999/xlink" height="32.000036842105146" width="32.000036842105146">
  <defs>
    <path id="path-0" opacity="1" fill-rule="evenodd" d="M14.42726390280393,-3.0546604337730514 L17.572772939300993,-3.0546604337730514 C18.67660298828899,-3.0546604337730514 19.572772939300993,-2.158490482761051 19.572772939300993,-1.0546604337730514 L19.572772939300993,33.054697275877515 C19.572772939300993,34.15852732486552 18.67660298828899,35.054697275877515 17.572772939300993,35.054697275877515 L14.42726390280393,35.054697275877515 C13.32343385381593,35.054697275877515 12.42726390280393,34.15852732486552 12.42726390280393,33.054697275877515 L12.42726390280393,-1.0546604337730514 C12.42726390280393,-2.158490482761051 13.32343385381593,-3.0546604337730514 14.42726390280393,-3.0546604337730514Z"/>
    <path id="path-1" opacity="1" fill-rule="evenodd" d="M-1.0546723429395115,12.427266135772811 L33.05470918504483,12.427266135772811 C34.15853923403283,12.427266135772811 35.05470918504483,13.323436086784811 35.05470918504483,14.427266135772811 L35.05470918504483,17.572770706332292 C35.05470918504483,18.67660075532029 34.15853923403283,19.572770706332292 33.05470918504483,19.572770706332292 L-1.0546723429395115,19.572770706332292 C-2.1585023919275113,19.572770706332292 -3.0546723429395115,18.676600755320294 -3.0546723429395115,17.572770706332292 L-3.0546723429395115,14.427266135772811 C-3.0546723429395115,13.323436086784811 -2.158502391927512,12.427266135772811 -1.0546723429395115,12.427266135772811Z"/>
  </defs>
  <g opacity="1">
    <g transform="translate(16.00001842105246, 16.000018421052232) rotate(315.0001126327126) translate(-16.00001842105246, -16.000018421052232)" opacity="1">
      <use xlink:href="#path-0"  class="hcIconFill"/>
    </g>
    <g transform="translate(16.00001842105266, 16.000018421052552) rotate(315.0001126327126) translate(-16.00001842105266, -16.000018421052552)" opacity="1">
      <use xlink:href="#path-1"  class="hcIconFill"/>
    </g>
  </g>
</svg>
