<?xml version="1.0" encoding="utf-8"?>
<svg version="1.1" xmlns="http://www.w3.org/2000/svg" xmlns:xlink="http://www.w3.org/1999/xlink" height="39.41109875567065" width="38.55380366856946">
  <defs>
    <path id="path-0" opacity="1" fill-rule="evenodd" d="M10.704630109478558,7.457201757791495 L27.84917355909113,7.457201757791495 C31.160663706055132,7.457201757791495 33.84917355909113,10.145711610827494 33.84917355909113,13.457201757791495 L33.84917355909113,28.706468646192317 C33.84917355909113,32.01795879315632 31.160663706055132,34.70646864619232 27.84917355909113,34.70646864619232 L10.704630109478558,34.70646864619232 C7.393139962514558,34.70646864619232 4.7046301094785585,32.01795879315632 4.704630109478558,28.706468646192317 L4.704630109478558,13.457201757791495 C4.704630109478558,10.145711610827496 7.393139962514557,7.457201757791496 10.704630109478558,7.457201757791495Z"/>
    <mask id="mask-1" maskUnits="userSpaceOnUse" maskContentUnits="userSpaceOnUse">
      <rect opacity="1" x="0" y="0" width="38.55380366856946" height="39.41109875567065" fill="black"/>
      <use xlink:href="#path-0" fill="white"/>
    </mask>
    <path id="path-2" opacity="1" fill-rule="evenodd" d="M8.222034344169515,8.18191630269564 L15.176606730603453,8.18191630269564 "/>
    <path id="path-3" opacity="1" fill-rule="evenodd" d="M23.245430177926153,8.18191630269564 L30.200002564360233,8.18191630269564 "/>
    <path id="path-4" opacity="1" fill-rule="evenodd" d="M15.667848881027112,8.18191630269564 L22.62242126746105,8.18191630269564 "/>
    <path id="path-5" opacity="1" fill-rule="evenodd" d="M19.51323442106235,3.7064486461923707 L19.513234421062464,29.70644864619237 "/>
  </defs>
  <g opacity="1">
    <g opacity="1">
      <use xlink:href="#path-0" fill-opacity="0" stroke="rgb(68,68,68)" stroke-opacity="1" stroke-width="4" stroke-linecap="butt" stroke-linejoin="miter" mask="url(#mask-1)"/>
    </g>
    <g transform="translate(11.699320537386484, 8.18191630269564) rotate(270.0000965423251) translate(-11.699320537386484, -8.18191630269564)" opacity="1">
      <use xlink:href="#path-2" fill-opacity="0" stroke="rgb(68,68,68)" stroke-opacity="1" stroke-width="2" stroke-linecap="butt" stroke-linejoin="miter"/>
    </g>
    <g transform="translate(26.722716371143193, 8.18191630269564) rotate(270.0000965423251) translate(-26.722716371143193, -8.18191630269564)" opacity="1">
      <use xlink:href="#path-3" fill-opacity="0" stroke="rgb(68,68,68)" stroke-opacity="1" stroke-width="2" stroke-linecap="butt" stroke-linejoin="miter"/>
    </g>
    <g transform="translate(19.14513507424408, 8.18191630269564) rotate(270.0000965423251) translate(-19.14513507424408, -8.18191630269564)" opacity="1">
      <use xlink:href="#path-4" fill-opacity="0" stroke="rgb(68,68,68)" stroke-opacity="1" stroke-width="2" stroke-linecap="butt" stroke-linejoin="miter"/>
    </g>
    <g transform="translate(19.513234421062407, 16.70644864619237) rotate(270.0000965423251) translate(-19.513234421062407, -16.70644864619237)" opacity="1">
      <use xlink:href="#path-5" fill-opacity="0" stroke="rgb(68,68,68)" stroke-opacity="1" stroke-width="2" stroke-linecap="butt" stroke-linejoin="miter"/>
    </g>
  </g>
</svg>