<?xml version="1.0" encoding="utf-8"?>
<svg version="1.1" xmlns="http://www.w3.org/2000/svg" xmlns:xlink="http://www.w3.org/1999/xlink" height="50" width="50">
  <defs>
    <path id="path-0" opacity="1" fill-rule="evenodd" d="M8,0 L42,0 C46.415320195952,0 50,3.584679804048 50,8 L50,42 C50,46.415320195952 46.415320195952,50 42,50 L8,50 C3.584679804048001,50 8.881784197001252e-16,46.415320195952 0,42 L0,8 C0,3.584679804048001 3.5846798040479984,8.881784197001252e-16 8,0Z"/>
    <mask id="mask-1" maskUnits="userSpaceOnUse" maskContentUnits="userSpaceOnUse">
      <rect opacity="1" x="0" y="0" width="50" height="50" fill="black"/>
      <use xlink:href="#path-0" fill="white"/>
    </mask>
    <path id="path-2" opacity="1" fill-rule="evenodd" d="M14,10 L36,10 C38.207660097976,10 40,11.792339902024 40,14 L40,36 C40,38.207660097976 38.207660097976,40 36,40 L14,40 C11.792339902024,40 10,38.207660097976 10,36 L10,14 C10,11.792339902024 11.792339902023999,10 14,10Z"/>
    <mask id="mask-3" maskUnits="userSpaceOnUse" maskContentUnits="userSpaceOnUse">
      <rect opacity="1" x="0" y="0" width="50" height="50" fill="black"/>
      <use xlink:href="#path-2" fill="white"/>
    </mask>
  </defs>
  <g opacity="1">
    <g opacity="1">
      <use xlink:href="#path-0" fill-opacity="0" stroke="rgb(255,255,255)" stroke-opacity="1" stroke-width="8" stroke-linecap="butt" stroke-linejoin="miter" mask="url(#mask-1)"/>
    </g>
    <g opacity="1">
      <use xlink:href="#path-2" fill-opacity="0" stroke="rgb(255,255,255)" stroke-opacity="1" stroke-width="8" stroke-linecap="butt" stroke-linejoin="miter" mask="url(#mask-3)"/>
    </g>
  </g>
</svg>