<svg id="Layer_1" data-name="Layer 1" xmlns="http://www.w3.org/2000/svg" viewBox="0 0 299.17 295.4"><defs><style>.cls-1{fill:#19578f;}</style></defs><title>logo-dutch-prize-papers</title><path class="cls-1" d="M297.81,186l-49.57-60.81a9.73,9.73,0,0,0-17.06,4.11L208.91,233.08c-18.84,1.25-29.32,14.6-29.86,28.52a9.47,9.47,0,0,0-.18,1.71v.22h-.46c0,5.06-2.8,9.94-8.69,10.13-12.47-.18-11.59-27.28-31.11-36.83l13.29-68.57a9.84,9.84,0,0,0,2.63-1l76.7-44.85a9.74,9.74,0,0,0,2.6-14.58L177,38.66l5.12-26.43a9.74,9.74,0,0,0-15.59-9.49L4.56,138.38a9.74,9.74,0,0,0,1.33,16.16l115.45,69.12-1.94,10c-18.72,1.33-29.13,14.64-29.67,28.51a9.47,9.47,0,0,0-.18,1.71c0,5.22-2.79,10.33-9,10.37-15.4.1-10.59-40.39-47.25-40.15-21.11.14-32.6,15-32.5,30,0,.21,0,.61,0,.61l25.55-.16v-.17c0-6,3.94-8.43,7.72-8.45C49.82,255.8,42,296.3,81,296.05c22-.15,32.84-15.45,34-30.19a8.06,8.06,0,0,0,.24-1.75,1,1,0,0,1,0-.17h.46v-.17c0-5.89,3.78-8.31,7.48-8.43,15.39.31,7.85,40.38,46.7,40.13h.46l.51,0c.7,0,1.39-.06,2.07-.11,20.2-1.28,30.3-15.91,31.39-30.05a8.15,8.15,0,0,0,.24-1.75c0-6.13,3.91-8.77,7.72-8.79,15.71-.1,7.88,40.4,46.93,40.15,22.89-.15,33.76-16.81,34.06-32.11l-25.55.17c0,5.14-2.87,10.11-9,10.15-12.53.08-11.68-26.7-30.67-36.56l1.91-8.93,64-26.43A9.74,9.74,0,0,0,297.81,186ZM172.21,63.46l39.33,47.86-54.81,32.06ZM28.12,144.58,158,34.27l-32.81,169.3ZM235,204.5l11-51.27,28.49,35Z" transform="translate(-0.83 -0.65)"/></svg>