<svg id="Layer_1" data-name="Layer 1" xmlns="http://www.w3.org/2000/svg" width="495.82" height="359.85" viewBox="0 0 495.82 359.85">
  <defs>
    <style>
      .cls-1 {
        fill: #035591;
      }
    </style>
  </defs>
  <title>logo-dutch-prize-papers-full</title>
  <g>
    <path class="cls-1" d="M46.27,247.59c0,14.85-9.93,26.93-28.24,26.93H1.1A1.09,1.09,0,0,1,0,273.37V221.81a1.09,1.09,0,0,1,1.15-1.15H18C36.34,220.66,46.27,232.66,46.27,247.59Zm-13.31,0c0-9.93-5-15.39-14.93-15.39H13.1V263H18C28,263,33,257.44,33,247.59Z" transform="translate(0.05 -2)"/>
    <path class="cls-1" d="M96.52,221.81v31.7c0,14.16-8.85,22-21.08,22s-21-7.85-21-22v-31.7a1.09,1.09,0,0,1,1.15-1.15H66.44a1.09,1.09,0,0,1,1.15,1.15v31.7c0,5.7,2.46,9,7.85,9s7.92-3.31,7.92-9v-31.7a1.09,1.09,0,0,1,1.16-1.15H95.37A1.09,1.09,0,0,1,96.52,221.81Z" transform="translate(0.05 -2)"/>
    <path class="cls-1" d="M143.08,221.81V231a1.09,1.09,0,0,1-1.15,1.16H130.62v41.17a1.09,1.09,0,0,1-1.16,1.15H118.61a1.09,1.09,0,0,1-1.15-1.15V232.2H106.14A1.09,1.09,0,0,1,105,231v-9.23a1.09,1.09,0,0,1,1.15-1.15h35.79A1.09,1.09,0,0,1,143.08,221.81Z" transform="translate(0.05 -2)"/>
    <path class="cls-1" d="M192.56,265.9a1.11,1.11,0,0,1,0,1.62,26.08,26.08,0,0,1-19.16,8,27.74,27.74,0,1,1,0-55.48,25.78,25.78,0,0,1,19.16,8,1.12,1.12,0,0,1,0,1.62l-6.69,7.23a1.06,1.06,0,0,1-1.62.08,16.34,16.34,0,0,0-11-4.08c-8.08,0-14.31,6.39-14.31,14.93,0,8.39,6.23,14.77,14.31,14.77a16,16,0,0,0,11-4.08,1.06,1.06,0,0,1,1.62.16Z" transform="translate(0.05 -2)"/>
    <path class="cls-1" d="M245.2,221.81v51.56a1.09,1.09,0,0,1-1.15,1.15H233.2a1.09,1.09,0,0,1-1.16-1.15V254H214.57v19.4a1.09,1.09,0,0,1-1.15,1.15H202.57a1.09,1.09,0,0,1-1.15-1.15V221.81a1.09,1.09,0,0,1,1.15-1.15h10.85a1.09,1.09,0,0,1,1.15,1.15v20.62H232V221.81a1.09,1.09,0,0,1,1.16-1.15h10.85A1.09,1.09,0,0,1,245.2,221.81Z" transform="translate(0.05 -2)"/>
    <path class="cls-1" d="M38.27,325.15c0,10.69-7.24,18.08-20.39,18.08H13.1v16.54A1.09,1.09,0,0,1,12,360.93H1.1A1.09,1.09,0,0,1,0,359.77V308.22a1.09,1.09,0,0,1,1.15-1.16H17.88C31,307.06,38.27,314.45,38.27,325.15Zm-12.55,0c0-5.24-4.38-6.54-8.08-6.54H13.1v13.08h4.54C21.34,331.69,25.72,330.3,25.72,325.15Z" transform="translate(0.05 -2)"/>
    <path class="cls-1" d="M85.29,360.93H73.82a1.45,1.45,0,0,1-1.38-.77L61.66,343.23H59.58v16.54a1.09,1.09,0,0,1-1.15,1.16H47.58a1.09,1.09,0,0,1-1.15-1.16V308.22a1.09,1.09,0,0,1,1.15-1.16H64.36c13.15,0,20.39,7.39,20.39,18.09,0,7.61-3.62,13.54-10.47,16.31l11.78,18.08C86.59,360.39,86.21,360.93,85.29,360.93ZM59.58,331.69h4.54c3.7,0,8.09-1.39,8.09-6.54s-4.39-6.54-8.09-6.54H59.58Z" transform="translate(0.05 -2)"/>
    <path class="cls-1" d="M96.29,307.06h10.85a1.1,1.1,0,0,1,1.16,1.16v51.55a1.09,1.09,0,0,1-1.16,1.16H96.29a1.09,1.09,0,0,1-1.15-1.16V308.22A1.09,1.09,0,0,1,96.29,307.06Z" transform="translate(0.05 -2)"/>
    <path class="cls-1" d="M156.62,350.54v9.23a1.09,1.09,0,0,1-1.15,1.16H118.69a1.1,1.1,0,0,1-1.16-1.16v-9.61a2.31,2.31,0,0,1,.47-1.39l23.7-30.16H119.46a1.1,1.1,0,0,1-1.16-1.16v-9.23a1.1,1.1,0,0,1,1.16-1.16H154.7a1.09,1.09,0,0,1,1.15,1.16v9.62a2.27,2.27,0,0,1-.46,1.38l-23.7,30.17h23.78A1.09,1.09,0,0,1,156.62,350.54Z" transform="translate(0.05 -2)"/>
    <path class="cls-1" d="M197.64,350.54v9.23a1.09,1.09,0,0,1-1.15,1.16h-29.4a1.09,1.09,0,0,1-1.15-1.16V308.22a1.09,1.09,0,0,1,1.15-1.16h29.32a1.09,1.09,0,0,1,1.15,1.16v9.23a1.09,1.09,0,0,1-1.15,1.16H179.1v9.23h16.23a1.09,1.09,0,0,1,1.16,1.15v9.24a1.09,1.09,0,0,1-1.16,1.15H179.1v10h17.39A1.09,1.09,0,0,1,197.64,350.54Z" transform="translate(0.05 -2)"/>
    <path class="cls-1" d="M267.75,325.15c0,10.69-7.24,18.08-20.39,18.08h-4.78v16.54a1.09,1.09,0,0,1-1.15,1.16H230.58a1.09,1.09,0,0,1-1.15-1.16V308.22a1.09,1.09,0,0,1,1.15-1.16h16.78C260.51,307.06,267.75,314.45,267.75,325.15Zm-12.55,0c0-5.24-4.38-6.54-8.08-6.54h-4.54v13.08h4.54C250.82,331.69,255.2,330.3,255.2,325.15Z" transform="translate(0.05 -2)"/>
    <path class="cls-1" d="M316,360.93H304.69a1.23,1.23,0,0,1-1.31-.93L301,352.46H283.06L280.68,360a1.23,1.23,0,0,1-1.31.93H268.06c-.85,0-1.23-.54-.93-1.31L285.68,308a1.31,1.31,0,0,1,1.31-.93h9.85a1.51,1.51,0,0,1,1.46.93l18.62,51.63C317.23,360.39,316.84,360.93,316,360.93Zm-18.47-19.09L292,324.45l-5.54,17.39Z" transform="translate(0.05 -2)"/>
    <path class="cls-1" d="M362.63,325.15c0,10.69-7.23,18.08-20.39,18.08h-4.77v16.54a1.09,1.09,0,0,1-1.15,1.16H325.47a1.09,1.09,0,0,1-1.16-1.16V308.22a1.1,1.1,0,0,1,1.16-1.16h16.77C355.4,307.06,362.63,314.45,362.63,325.15Zm-12.54,0c0-5.24-4.38-6.54-8.08-6.54h-4.54v13.08H342C345.71,331.69,350.09,330.3,350.09,325.15Z" transform="translate(0.05 -2)"/>
    <path class="cls-1" d="M402.5,350.54v9.23a1.09,1.09,0,0,1-1.16,1.16H372a1.09,1.09,0,0,1-1.16-1.16V308.22a1.1,1.1,0,0,1,1.16-1.16h29.32a1.09,1.09,0,0,1,1.15,1.16v9.23a1.09,1.09,0,0,1-1.15,1.16H384v9.23h16.24a1.09,1.09,0,0,1,1.15,1.15v9.24a1.09,1.09,0,0,1-1.15,1.15H384v10h17.39A1.09,1.09,0,0,1,402.5,350.54Z" transform="translate(0.05 -2)"/>
    <path class="cls-1" d="M451.59,360.93H440.13a1.47,1.47,0,0,1-1.39-.77L428,343.23h-2.08v16.54a1.09,1.09,0,0,1-1.15,1.16H413.89a1.1,1.1,0,0,1-1.16-1.16V308.22a1.1,1.1,0,0,1,1.16-1.16h16.77c13.16,0,20.39,7.39,20.39,18.09,0,7.61-3.61,13.54-10.46,16.31l11.77,18.08C452.9,360.39,452.52,360.93,451.59,360.93Zm-25.7-29.24h4.54c3.7,0,8.08-1.39,8.08-6.54s-4.38-6.54-8.08-6.54h-4.54Z" transform="translate(0.05 -2)"/>
    <path class="cls-1" d="M495.77,345.23c0,11.31-10.16,16.62-19.32,16.62-8.16,0-15.54-4.23-18.93-8.54a1.29,1.29,0,0,1,0-1.62l5.93-6.69a1.16,1.16,0,0,1,1.77-.15c4,3.23,7.38,4.61,11.61,4.61,3.08,0,6.08-1.38,6.08-4.38,0-7.47-23.85-5-23.85-22.78,0-10.23,8.69-15.85,17.54-15.85,7.16,0,12.47,2.84,17.09,7.08a1.11,1.11,0,0,1,.15,1.61l-5.62,7a1.07,1.07,0,0,1-1.61.3c-3.93-2.54-6.23-3.61-9.54-3.61-3.62,0-5.16,1.92-5.16,3.77C471.91,330.23,495.77,326.3,495.77,345.23Z" transform="translate(0.05 -2)"/>
  </g>
  <path class="cls-1" d="M175.26,111.33,146,75.46A5.74,5.74,0,0,0,136,77.89l-13.14,61.18c-11.11.74-17.29,8.61-17.61,16.82a5.16,5.16,0,0,0-.1,1s0,.08,0,.13h-.27c0,3-1.65,5.86-5.12,6-7.35-.11-6.84-16.09-18.34-21.72l7.83-40.43a5.71,5.71,0,0,0,1.55-.62L136,73.78a5.75,5.75,0,0,0,1.54-8.6L104,24.41l3-15.58a5.74,5.74,0,0,0-9.19-5.59l-95.53,80a5.74,5.74,0,0,0,.79,9.53l68.08,40.77L70,139.42c-11,.78-17.17,8.63-17.49,16.81a5.19,5.19,0,0,0-.11,1c0,3.08-1.64,6.09-5.29,6.11-9.08.06-6.24-23.81-27.86-23.67C6.84,139.76.06,148.5.12,157.35v.36l15.07-.1v-.1c0-3.54,2.33-5,4.56-5,9.26-.06,4.64,23.82,27.67,23.67,12.94-.08,19.36-9.11,20-17.8a4.88,4.88,0,0,0,.14-1v-.1h.28v-.1c0-3.47,2.23-4.9,4.41-5,9.08.18,4.63,23.81,27.54,23.66h.57l1.22-.07c11.91-.76,17.87-9.38,18.51-17.72a3.86,3.86,0,0,0,.14-1c0-3.62,2.31-5.17,4.56-5.19,9.26-.06,4.64,23.83,27.67,23.68,13.5-.09,19.91-9.91,20.09-18.93l-15.07.1c0,3-1.69,6-5.29,6-7.39.05-6.89-15.75-18.09-21.56l1.13-5.27L173,120.26a5.75,5.75,0,0,0,2.26-8.93ZM101.19,39l23.19,28.23L92.06,86.17Zm-85,47.84,76.61-65L73.48,121.67Zm122,35.34L144.68,92l16.8,20.61Z" transform="translate(0.05 -2)"/>
</svg>
