<?xml version="1.0" encoding="utf-8"?>
<svg version="1.1" xmlns="http://www.w3.org/2000/svg" xmlns:xlink="http://www.w3.org/1999/xlink" height="50" width="50">
  <defs>
    <path id="path-0" opacity="1" fill-rule="evenodd" d="M8,0 L42,0 C46.415320195952,0 50,3.584679804048 50,8 L50,42 C50,46.415320195952 46.415320195952,50 42,50 L8,50 C3.584679804048001,50 8.881784197001252e-16,46.415320195952 0,42 L0,8 C0,3.584679804048001 3.5846798040479984,8.881784197001252e-16 8,0Z"/>
    <mask id="mask-1" maskUnits="userSpaceOnUse" maskContentUnits="userSpaceOnUse">
      <rect opacity="1" x="0" y="0" width="50" height="50" fill="black"/>
      <use xlink:href="#path-0" fill="white"/>
    </mask>
    <path id="path-2" opacity="1" fill-rule="evenodd" d="M20.948589055217695,17.597032930341584 L30.05144164855504,17.597032930341584 C32.259101746531044,17.597032930341584 34.05144164855504,19.389372832365584 34.05144164855504,21.597032930341584 L34.05144164855504,30.32489438629466 C34.05144164855504,32.53255448427066 32.259101746531044,34.32489438629466 30.05144164855504,34.32489438629466 L20.948589055217695,34.32489438629466 C18.740928957241696,34.32489438629466 16.948589055217695,32.53255448427066 16.948589055217695,30.32489438629466 L16.948589055217695,21.597032930341584 C16.948589055217695,19.389372832365584 18.740928957241696,17.597032930341584 20.948589055217695,17.597032930341584Z"/>
    <mask id="mask-3" maskUnits="userSpaceOnUse" maskContentUnits="userSpaceOnUse">
      <rect opacity="1" x="0" y="0" width="50" height="50" fill="black"/>
      <use xlink:href="#path-2" fill="white"/>
    </mask>
  </defs>
  <g opacity="1">
    <g opacity="1">
      <use xlink:href="#path-0" fill-opacity="0" stroke="rgb(0,0,0)" stroke-opacity="1" stroke-width="8" stroke-linecap="butt" stroke-linejoin="miter" mask="url(#mask-1)"/>
    </g>
    <g transform="translate(25.50001535188637, 25.96096365831812) rotate(315.0001126327126) translate(-25.50001535188637, -25.96096365831812)" opacity="1">
      <use xlink:href="#path-2" fill-opacity="0" stroke="rgb(0,0,0)" stroke-opacity="1" stroke-width="8" stroke-linecap="butt" stroke-linejoin="miter" mask="url(#mask-3)"/>
    </g>
  </g>
</svg>