<?xml version="1.0" encoding="utf-8"?>
<svg version="1.1" xmlns="http://www.w3.org/2000/svg" xmlns:xlink="http://www.w3.org/1999/xlink" height="50" width="50">
  <defs>
    <path id="path-0" opacity="1" fill-rule="evenodd" d="M8,0 L42,0 C46.415320195952,0 50,3.584679804048 50,8 L50,42 C50,46.415320195952 46.415320195952,50 42,50 L8,50 C3.584679804048001,50 8.881784197001252e-16,46.415320195952 0,42 L0,8 C0,3.584679804048001 3.5846798040479984,8.881784197001252e-16 8,0Z"/>
    <mask id="mask-1" maskUnits="userSpaceOnUse" maskContentUnits="userSpaceOnUse">
      <rect opacity="1" x="0" y="0" width="50" height="50" fill="black"/>
      <use xlink:href="#path-0" fill="white"/>
    </mask>
    <path id="path-2" opacity="1" fill-rule="evenodd" d="M10.813111010335817,7.221802409547223 L11.124673943616614,7.221802409547223 C13.200750051875746,7.221802409547223 14.886260449007537,8.907312806679016 14.886260449007537,10.983388914938146 C14.886260449007537,13.059465023197276 13.200750051875746,14.74497542032907 11.124673943616614,14.74497542032907 L10.813111010335817,14.74497542032907 C8.737034902076687,14.74497542032907 7.051524504944894,13.059465023197278 7.051524504944894,10.983388914938146 C7.051524504944894,8.907312806679016 8.737034902076685,7.221802409547223 10.813111010335817,7.221802409547223Z"/>
  </defs>
  <g opacity="1">
    <g opacity="1">
      <use xlink:href="#path-0" fill-opacity="0" stroke="rgb(255,255,255)" stroke-opacity="1" stroke-width="8" stroke-linecap="butt" stroke-linejoin="miter" mask="url(#mask-1)"/>
    </g>
    <g transform="translate(10.968892476976215, 10.983388914938146) rotate(315.0001126327126) translate(-10.968892476976215, -10.983388914938146)" opacity="1">
      <use xlink:href="#path-2" fill="rgb(255,255,255)" fill-opacity="1"/>
    </g>
  </g>
</svg>