<svg xmlns="http://www.w3.org/2000/svg" width="640" height="352" viewBox="0 0 640 352">
  <defs>
    <style>
      .cls-1 {
        fill: #a9d9ec;
      }

      .cls-2, .cls-3 {
        fill: #6dcff6;
      }

      .cls-2, .cls-7 {
        fill-rule: evenodd;
      }

      .cls-4, .cls-6 {
        font-size: 16px;
      }

      .cls-4 {
        font-family: Roboto;
        font-weight: 700;
      }

      .cls-5, .cls-6 {
        font-family: "Roboto Mono";
        font-weight: 300;
      }

      .cls-7 {
        fill: none;
        stroke: #ebebeb;
        stroke-width: 3px;
      }

      .cls-8 {
        fill: #ebebeb;
      }

      .cls-9 {
        fill: #ccc;
      }
    </style>
  </defs>
  <g id="page-blocks.svg">
    <rect id="main" class="cls-1" x="120" y="-14" width="401" height="366"/>
    <path id="Rechthoek_1" data-name="Rechthoek 1" class="cls-2" d="M2413,713.2h276V785H2413V713.2Z" transform="translate(-2282 -494)"/>
    <path id="Rechthoek_1-2" data-name="Rechthoek 1" class="cls-2" d="M2413,630h380v71.8H2413V630Z" transform="translate(-2282 -494)"/>
    <rect id="Rechthoek_1-3" data-name="Rechthoek 1" class="cls-3" x="131" y="21" width="380" height="104"/>
    <text id="Header_.hcHeadSpace_" data-name="Header (.hcHeadSpace)" class="cls-4" x="156.169" y="77.372">Header <tspan class="cls-5">(.hcHeadSpace)</tspan></text>
    <text id="_div_" data-name="&lt;div&gt;" class="cls-6" x="155.168" y="156.372">&lt;div&gt;</text>
    <text id="_.hcBlockText" data-name=".hcBlockText" class="cls-6" x="154.167" y="239.372">.hcBlockText</text>
    <text id="_.hcContentContainer" data-name=".hcContentContainer" class="cls-6" x="131.392" y="339.663">.hcContentContainer</text>
    <g id="bar">
      <path id="Screen_bg" data-name="Screen bg" class="cls-7" d="M2287,494h630a5,5,0,0,1,5,5V841a5,5,0,0,1-5,5H2287a5,5,0,0,1-5-5V499A5,5,0,0,1,2287,494Zm0,0h630a5,5,0,0,1,5,5V841a5,5,0,0,1-5,5H2287a5,5,0,0,1-5-5V499A5,5,0,0,1,2287,494Z" transform="translate(-2282 -494)"/>
      <rect id="bar-2" data-name="bar" class="cls-8" y="-1" width="640" height="22" rx="5" ry="5"/>
      <circle id="b" class="cls-9" cx="11.5" cy="11.5" r="4.5"/>
      <circle id="b-2" data-name="b" class="cls-9" cx="23.5" cy="11.5" r="4.5"/>
    </g>
  </g>
</svg>
